<svg xmlns="http://www.w3.org/2000/svg" width="24.15" height="24.15" viewBox="0 0 24.15 24.15"><defs><style>.a{fill:#fcb52c;}</style></defs><g transform="translate(-32 -32)"><path class="a" d="M416,312h.862v.862H416Z" transform="translate(-363.3 -264.906)"/><path class="a" d="M416,392h.862v.862H416Z" transform="translate(-363.3 -340.594)"/><path class="a" d="M257.855,230.286l-.264,1.62,1.355-.749a.431.431,0,0,1,.417,0l1.355.749-.264-1.62a.431.431,0,0,1,.117-.371l1.138-1.167-1.554-.237a.431.431,0,0,1-.325-.243l-.676-1.44-.676,1.44a.431.431,0,0,1-.325.243l-1.554.237,1.139,1.167A.431.431,0,0,1,257.855,230.286Z" transform="translate(-212.492 -184.326)"/><path class="a" d="M336,392h.862v.862H336Z" transform="translate(-287.613 -340.594)"/><path class="a" d="M176,392h.862v.862H176Z" transform="translate(-136.238 -340.594)"/><path class="a" d="M176,232h.862v.862H176Z" transform="translate(-136.238 -189.219)"/><path class="a" d="M176,312h.862v.862H176Z" transform="translate(-136.238 -264.906)"/><path class="a" d="M376.862,35.019V32.431a.431.431,0,0,0-.862,0v2.587a.431.431,0,1,0,.862,0Z" transform="translate(-325.457)"/><path class="a" d="M256,392h.862v.862H256Z" transform="translate(-211.925 -340.594)"/><path class="a" d="M120.862,35.019V32.431a.431.431,0,1,0-.862,0v2.587a.431.431,0,0,0,.862,0Z" transform="translate(-83.256)"/><path class="a" d="M248.862,35.019V32.431a.431.431,0,0,0-.862,0v2.587a.431.431,0,1,0,.862,0Z" transform="translate(-204.356)"/><path class="a" d="M416,232h.862v.862H416Z" transform="translate(-363.3 -189.219)"/><path class="a" d="M96,312h.862v.862H96Z" transform="translate(-60.55 -264.906)"/><path class="a" d="M32,175.956a1.3,1.3,0,0,0,1.294,1.294H54.856a1.3,1.3,0,0,0,1.294-1.294V160H32ZM45.8,173.8a.431.431,0,0,1-.431.431H43.644a.431.431,0,0,1-.431-.431v-1.725a.431.431,0,0,1,.431-.431h1.725a.431.431,0,0,1,.431.431Zm4.312,0a.431.431,0,0,1-.431.431H47.956a.431.431,0,0,1-.431-.431v-1.725a.431.431,0,0,1,.431-.431h1.725a.431.431,0,0,1,.431.431Zm1.725-10.35a.431.431,0,0,1,.431-.431h1.725a.431.431,0,0,1,.431.431v1.725a.431.431,0,0,1-.431.431H52.268a.431.431,0,0,1-.431-.431Zm0,4.312a.431.431,0,0,1,.431-.431h1.725a.431.431,0,0,1,.431.431v1.725a.431.431,0,0,1-.431.431H52.268a.431.431,0,0,1-.431-.431Zm0,4.312a.431.431,0,0,1,.431-.431h1.725a.431.431,0,0,1,.431.431V173.8a.431.431,0,0,1-.431.431H52.268a.431.431,0,0,1-.431-.431ZM42.8,165.086a.431.431,0,0,1,.344-.289l2.156-.329.968-2.063a.431.431,0,0,1,.781,0l.968,2.063,2.156.329a.431.431,0,0,1,.244.728l-1.573,1.612.372,2.282a.431.431,0,0,1-.634.447L46.662,168.8l-1.924,1.063a.431.431,0,0,1-.634-.447l.372-2.282L42.9,165.524a.431.431,0,0,1-.1-.438Zm-3.9-1.636a.431.431,0,0,1,.431-.431h1.725a.431.431,0,0,1,.431.431v1.725a.431.431,0,0,1-.431.431H39.331a.431.431,0,0,1-.431-.431Zm0,4.312a.431.431,0,0,1,.431-.431h1.725a.431.431,0,0,1,.431.431v1.725a.431.431,0,0,1-.431.431H39.331a.431.431,0,0,1-.431-.431Zm0,4.312a.431.431,0,0,1,.431-.431h1.725a.431.431,0,0,1,.431.431V173.8a.431.431,0,0,1-.431.431H39.331a.431.431,0,0,1-.431-.431Zm-4.312-4.312a.431.431,0,0,1,.431-.431h1.725a.431.431,0,0,1,.431.431v1.725a.431.431,0,0,1-.431.431H35.019a.431.431,0,0,1-.431-.431Zm0,4.312a.431.431,0,0,1,.431-.431h1.725a.431.431,0,0,1,.431.431V173.8a.431.431,0,0,1-.431.431H35.019a.431.431,0,0,1-.431-.431Z" transform="translate(0 -121.1)"/><path class="a" d="M96,392h.862v.862H96Z" transform="translate(-60.55 -340.594)"/><path class="a" d="M54.856,64H52.268v1.294a1.294,1.294,0,0,1-2.587,0V64H45.369v1.294a1.294,1.294,0,0,1-2.587,0V64H38.469v1.294a1.294,1.294,0,0,1-2.587,0V64H33.294A1.3,1.3,0,0,0,32,65.294v3.019H56.15V65.294A1.3,1.3,0,0,0,54.856,64Z" transform="translate(0 -30.275)"/></g></svg>