<svg xmlns="http://www.w3.org/2000/svg" width="33.172" height="33.172" viewBox="0 0 33.172 33.172"><defs><style>.a{fill:#fcb52c;}</style></defs><path class="a" d="M3.937,22.971A13.46,13.46,0,0,1,22.972,3.936,13.2,13.2,0,0,1,25,20.18a.566.566,0,0,0,.078.675l6.867,6.867c1.367,1.367,1.692,3.278.48,4.49l-.209.208c-1.212,1.212-3.123.887-4.49-.48L20.87,25.088A.575.575,0,0,0,20.181,25,13.2,13.2,0,0,1,3.937,22.971Zm16.55-2.485a9.945,9.945,0,1,0-14.065,0A9.957,9.957,0,0,0,20.487,20.486Z" transform="translate(-0.001 0)"/><g transform="translate(8.03 5.221)"><path class="a" d="M126,58.475a1.543,1.543,0,0,0,1.419-2.143,9.717,9.717,0,0,0-12.721-5.156,1.542,1.542,0,1,0,1.2,2.84,6.63,6.63,0,0,1,8.68,3.518A1.542,1.542,0,0,0,126,58.475Z" transform="translate(-113.752 -50.409)"/></g></svg>