<svg xmlns="http://www.w3.org/2000/svg" width="90.12" height="139.454" viewBox="0 0 90.12 139.454"><defs><style>.a{opacity:0.7;}.b,.c,.d,.e,.f{fill:none;stroke-miterlimit:10;}.b{stroke:#52ce8a;}.c{stroke:#c1ab74;}.c,.d{opacity:0.5;}.d{stroke:#99c967;}.e{stroke:#fdd774;}.f{stroke:#33ab6d;}</style></defs><g class="a" transform="translate(0.847 0.5)"><path class="b" d="M186.2,526.87a46.7,46.7,0,0,1,1.714-7.162c1.534-1.428,2.975-2.942,4.465-4.411l8.881-8.867,1.12-1.12h20.4a56.541,56.541,0,0,1,6.266,3.814,57.578,57.578,0,0,1-6.266,3.814H205.542l-7.77,7.75c-1.468,1.49-3,2.929-4.413,4.462A45.356,45.356,0,0,1,186.2,526.87Z" transform="translate(-140.621 -505.31)"/><path class="c" d="M186.2,398.11a46.782,46.782,0,0,0,1.714,7.162c1.534,1.425,2.975,2.942,4.465,4.408l8.881,8.87,1.12,1.12h20.4a56.943,56.943,0,0,0,6.266-3.814,57.573,57.573,0,0,0-6.266-3.814H205.542l-7.77-7.764c-1.468-1.49-3-2.931-4.413-4.462A45.358,45.358,0,0,0,186.2,398.11Z" transform="translate(-140.621 -368.906)"/><path class="d" d="M186.2,312.493a46.7,46.7,0,0,1,1.714-7.162c1.534-1.427,2.975-2.942,4.465-4.411l8.881-8.881,1.12-1.12h20.4a56.527,56.527,0,0,1,6.266,3.814,57.57,57.57,0,0,1-6.266,3.814H205.542l-7.77,7.778c-1.468,1.49-3,2.929-4.413,4.462A46.919,46.919,0,0,1,186.2,312.493Z" transform="translate(-140.621 -232.528)"/><path class="e" d="M186.2,183.72a46.781,46.781,0,0,0,1.714,7.162c1.534,1.425,2.975,2.942,4.465,4.408l8.881,8.87,1.12,1.12h20.4a56.947,56.947,0,0,0,6.266-3.814,57.576,57.576,0,0,0-6.266-3.814H205.542l-7.77-7.764c-1.468-1.49-3-2.931-4.413-4.462A46.6,46.6,0,0,0,186.2,183.72Z" transform="translate(-140.621 -96.111)"/><path class="b" d="M186.2,98.09a46.7,46.7,0,0,1,1.714-7.162c1.534-1.428,2.975-2.942,4.465-4.411l8.881-8.867,1.12-1.12h20.4a56.532,56.532,0,0,1,6.266,3.814,57.567,57.567,0,0,1-6.266,3.814H205.542l-7.77,7.764c-1.468,1.49-3,2.929-4.413,4.462A46.6,46.6,0,0,1,186.2,98.09Z" transform="translate(-140.621 40.28)"/><path class="f" d="M396.357,98.09a46.7,46.7,0,0,0-1.714-7.162c-1.531-1.428-2.972-2.942-4.465-4.411L381.3,77.65l-1.12-1.12h-20.4a56.535,56.535,0,0,0-6.266,3.814,56.192,56.192,0,0,0,6.279,3.814h17.239l7.753,7.764c1.468,1.49,3,2.929,4.413,4.462A46.788,46.788,0,0,0,396.357,98.09Z" transform="translate(-353.51 40.28)"/><path class="b" d="M396.357,183.72a46.779,46.779,0,0,1-1.714,7.162c-1.531,1.425-2.972,2.942-4.465,4.408l-8.878,8.87-1.12,1.12h-20.4a56.95,56.95,0,0,1-6.266-3.814,56.2,56.2,0,0,1,6.279-3.814h17.239l7.753-7.764c1.468-1.49,3-2.931,4.413-4.462A46.788,46.788,0,0,1,396.357,183.72Z" transform="translate(-353.51 -96.111)"/><path class="c" d="M396.357,312.493a46.7,46.7,0,0,0-1.714-7.162c-1.531-1.427-2.972-2.942-4.465-4.411L381.3,292.04l-1.12-1.12h-20.4a56.53,56.53,0,0,0-6.266,3.814,56.2,56.2,0,0,0,6.279,3.814h17.239l7.753,7.778c1.468,1.49,3,2.929,4.413,4.462A47.11,47.11,0,0,0,396.357,312.493Z" transform="translate(-353.51 -232.528)"/><path class="d" d="M396.357,398.11a46.78,46.78,0,0,1-1.714,7.162c-1.531,1.425-2.972,2.942-4.465,4.408l-8.878,8.87-1.12,1.12h-20.4a56.946,56.946,0,0,1-6.266-3.814,56.2,56.2,0,0,1,6.279-3.814h17.239l7.753-7.764c1.468-1.49,3-2.931,4.413-4.462A45.538,45.538,0,0,1,396.357,398.11Z" transform="translate(-353.51 -368.906)"/><path class="e" d="M396.357,526.87a46.7,46.7,0,0,0-1.714-7.162c-1.531-1.428-2.972-2.942-4.465-4.411L381.3,506.43l-1.12-1.12h-20.4a56.544,56.544,0,0,0-6.266,3.814,56.2,56.2,0,0,0,6.279,3.814h17.239l7.753,7.75c1.468,1.49,3,2.929,4.413,4.462A45.537,45.537,0,0,0,396.357,526.87Z" transform="translate(-353.51 -505.31)"/></g></svg>