<svg xmlns="http://www.w3.org/2000/svg" width="54.698" height="136.878" viewBox="0 0 54.698 136.878"><defs><style>.a,.b,.c,.d{fill:none;stroke-miterlimit:10;}.a{stroke:#33ab6d;}.a,.b{opacity:0.45;}.b{stroke:#52ce8a;}.c{stroke:#c1ab74;}.d{stroke:#99c967;}</style></defs><g transform="translate(0.847 -72.031)"><path class="a" d="M406.777,103.333a58.062,58.062,0,0,0-2.13-8.9c-1.9-1.775-3.695-3.658-5.551-5.483L388.058,77.922l-1.392-1.392H361.3a70.285,70.285,0,0,0-7.79,4.741,69.859,69.859,0,0,0,7.807,4.741h21.431l9.639,9.652c1.825,1.853,3.725,3.641,5.487,5.548A58.166,58.166,0,0,0,406.777,103.333Z" transform="translate(-353.51 104.994)"/><path class="b" d="M406.777,183.72a58.158,58.158,0,0,1-2.13,8.9c-1.9,1.771-3.695,3.658-5.551,5.48l-11.037,11.027-1.392,1.392H361.3a70.8,70.8,0,0,1-7.79-4.741,69.861,69.861,0,0,1,7.807-4.741h21.431l9.639-9.652c1.825-1.853,3.725-3.644,5.487-5.547A58.164,58.164,0,0,1,406.777,183.72Z" transform="translate(-353.51 -38.499)"/><path class="c" d="M406.777,317.74a58.062,58.062,0,0,0-2.13-8.9c-1.9-1.775-3.695-3.658-5.551-5.483l-11.037-11.041-1.392-1.392H361.3a70.28,70.28,0,0,0-7.79,4.741,69.859,69.859,0,0,0,7.807,4.741h21.431l9.639,9.669c1.825,1.853,3.725,3.641,5.487,5.548A58.564,58.564,0,0,0,406.777,317.74Z" transform="translate(-353.51 -182.022)"/><path class="d" d="M406.777,398.11a58.158,58.158,0,0,1-2.13,8.9c-1.9,1.771-3.695,3.658-5.551,5.48l-11.037,11.027-1.392,1.392H361.3a70.8,70.8,0,0,1-7.79-4.742,69.858,69.858,0,0,1,7.807-4.741h21.431l9.639-9.652c1.825-1.853,3.725-3.644,5.487-5.548A56.617,56.617,0,0,1,406.777,398.11Z" transform="translate(-353.51 -325.498)"/></g></svg>