<svg xmlns="http://www.w3.org/2000/svg" width="111.624" height="100.512" viewBox="0 0 111.624 100.512"><defs><style>.a{opacity:0.45;}.b,.c,.d,.e,.f,.g{fill:none;stroke-miterlimit:10;}.b{stroke:#99c967;opacity:0.2;}.c{stroke:#fdd774;}.d,.f{stroke:#52ce8a;}.e{stroke:#33ab6d;}.e,.f,.g{opacity:0.5;}.g{stroke:#c1ab74;}</style></defs><g class="a" transform="translate(0.847 0.5)"><path class="b" d="M186.2,317.74a58.058,58.058,0,0,1,2.13-8.9c1.907-1.775,3.7-3.658,5.551-5.483l11.041-11.041,1.392-1.392h25.363a70.274,70.274,0,0,1,7.79,4.741,71.566,71.566,0,0,1-7.79,4.741H210.246l-9.659,9.669c-1.825,1.853-3.725,3.641-5.487,5.548A58.325,58.325,0,0,1,186.2,317.74Z" transform="translate(-129.536 -290.92)"/><path class="c" d="M186.2,183.72a58.158,58.158,0,0,0,2.13,8.9c1.907,1.771,3.7,3.658,5.551,5.48l11.041,11.027,1.392,1.392h25.363a70.794,70.794,0,0,0,7.79-4.741,71.57,71.57,0,0,0-7.79-4.741H210.246l-9.659-9.652c-1.825-1.853-3.725-3.644-5.487-5.547A57.928,57.928,0,0,0,186.2,183.72Z" transform="translate(-129.536 -147.397)"/><path class="d" d="M186.2,103.333a58.062,58.062,0,0,1,2.13-8.9c1.907-1.775,3.7-3.658,5.551-5.483l11.041-11.024,1.392-1.392h25.363a70.279,70.279,0,0,1,7.79,4.741,71.567,71.567,0,0,1-7.79,4.741H210.246l-9.659,9.652c-1.825,1.853-3.725,3.641-5.487,5.548A57.93,57.93,0,0,1,186.2,103.333Z" transform="translate(-129.536 -3.904)"/><path class="e" d="M406.777,103.333a58.062,58.062,0,0,0-2.13-8.9c-1.9-1.775-3.695-3.658-5.551-5.483L388.058,77.922l-1.392-1.392H361.3a70.285,70.285,0,0,0-7.79,4.741,69.859,69.859,0,0,0,7.807,4.741h21.431l9.639,9.652c1.825,1.853,3.725,3.641,5.487,5.548A58.166,58.166,0,0,0,406.777,103.333Z" transform="translate(-353.51 -3.904)"/><path class="f" d="M406.777,183.72a58.158,58.158,0,0,1-2.13,8.9c-1.9,1.771-3.695,3.658-5.551,5.48l-11.037,11.027-1.392,1.392H361.3a70.8,70.8,0,0,1-7.79-4.741,69.861,69.861,0,0,1,7.807-4.741h21.431l9.639-9.652c1.825-1.853,3.725-3.644,5.487-5.547A58.164,58.164,0,0,1,406.777,183.72Z" transform="translate(-353.51 -147.397)"/><path class="g" d="M406.777,317.74a58.062,58.062,0,0,0-2.13-8.9c-1.9-1.775-3.695-3.658-5.551-5.483l-11.037-11.041-1.392-1.392H361.3a70.28,70.28,0,0,0-7.79,4.741,69.859,69.859,0,0,0,7.807,4.741h21.431l9.639,9.669c1.825,1.853,3.725,3.641,5.487,5.548A58.564,58.564,0,0,0,406.777,317.74Z" transform="translate(-353.51 -290.92)"/></g></svg>